<?xml version="1.0" standalone="no"?>
<!DOCTYPE svg PUBLIC "-//W3C//DTD SVG 20010904//EN"
 "http://www.w3.org/TR/2001/REC-SVG-20010904/DTD/svg10.dtd">
<svg version="1.0" xmlns="http://www.w3.org/2000/svg"
 width="420.000000pt" height="420.000000pt" viewBox="0 0 420.000000 420.000000"
 preserveAspectRatio="xMidYMid meet">
<metadata>
Created by potrace 1.11, written by Peter Selinger 2001-2013
</metadata>
<g transform="translate(0.000000,420.000000) scale(0.100000,-0.100000)"
fill="#000000" stroke="none">
<path d="M569 3931 l-29 -29 0 -587 0 -587 -29 -82 c-148 -418 -118 -908 78
-1307 167 -339 436 -607 776 -777 321 -160 727 -216 1066 -147 l79 16 57 -50
c63 -56 189 -122 273 -143 81 -19 271 -16 345 6 188 57 338 183 425 356 50
100 64 164 64 300 1 130 -15 204 -64 301 l-19 37 48 98 c231 467 231 1030 2
1495 -166 335 -435 606 -768 774 -68 34 -93 51 -93 65 0 10 -11 32 -24 47 -24
28 -24 28 -188 34 -89 4 -192 12 -228 18 -72 12 -357 16 -414 6 l-36 -7 0 71
c0 63 -3 75 -25 96 l-24 25 -621 0 -622 0 -29 -29z m271 -266 l0 -135 -70 0
-70 0 0 128 c0 71 3 132 7 135 3 4 35 7 70 7 l63 0 0 -135z m888 -2 l3 -133
-71 0 -70 0 0 128 c0 71 3 132 7 136 4 4 34 6 68 4 l60 -3 3 -132z m-590 0
l-3 -128 -67 -3 -68 -3 0 131 0 130 70 0 71 0 -3 -127z m290 0 l-3 -128 -60 0
-60 0 -3 128 -3 127 66 0 66 0 -3 -127z m587 -213 l0 -125 -60 0 -60 0 -3 114
c-1 63 0 121 3 128 3 10 21 13 62 11 l58 -3 0 -125z m305 0 l0 -130 -70 0 -70
0 0 130 0 130 70 0 70 0 0 -130z m290 0 l0 -131 -62 3 -63 3 -3 114 c-1 63 0
121 2 128 4 9 25 13 66 13 l60 0 0 -130z m-1178 -90 l288 0 0 -567 0 -567 403
-405 c431 -434 447 -454 482 -586 52 -203 -32 -428 -202 -541 -157 -104 -341
-117 -508 -34 -76 37 -98 57 -458 418 l-378 378 30 50 c102 167 101 381 -3
539 -74 113 -197 199 -321 225 l-55 11 0 538 c0 296 3 541 8 546 4 4 101 5
216 1 115 -3 339 -6 498 -6z m1178 -782 l0 -572 403 -405 c431 -434 447 -453
482 -586 68 -263 -100 -539 -372 -609 -168 -44 -337 4 -475 133 l-72 68 44 50
c61 68 116 164 143 248 18 59 22 92 21 210 0 126 -3 147 -27 213 -52 143 -77
174 -484 582 l-383 386 0 427 0 427 360 0 360 0 0 -572z m-1786 -506 c64 -35
130 -112 156 -183 18 -46 21 -74 18 -131 -4 -76 -40 -178 -62 -178 -20 0 -173
163 -197 210 -14 29 -23 68 -25 113 -2 37 -6 99 -8 138 l-3 71 36 -7 c20 -4
58 -19 85 -33z"/>
<path d="M1655 1867 c-21 -17 -27 -32 -27 -61 0 -37 10 -49 274 -313 150 -151
284 -279 297 -284 30 -12 87 5 101 31 6 10 10 36 10 56 0 37 -12 50 -278 316
-262 263 -280 278 -314 278 -24 0 -46 -8 -63 -23z"/>
</g>
</svg>
